<?xml version="1.0" encoding="utf-8"?>
<!-- Generator: Adobe Illustrator 19.2.1, SVG Export Plug-In . SVG Version: 6.00 Build 0)  -->
<svg version="1.1" xmlns="http://www.w3.org/2000/svg" xmlns:xlink="http://www.w3.org/1999/xlink" x="0px" y="0px"
	 viewBox="0 0 80 80" style="enable-background:new 0 0 80 80;" xml:space="preserve">
<style type="text/css">
	.st0{display:none;}
	.st1{display:inline;}
	.st2{fill:#FFEC5C;}
	.st3{fill:#FCFFA2;}
	.st4{fill:#FFFFFF;}
	.st5{fill:#646464;}
	.st6{fill:#CCCCCC;}
	.st7{fill:#323232;}
	.st8{display:inline;fill:#CCCCCC;stroke:#969696;stroke-linecap:round;stroke-miterlimit:10;}
	.st9{fill:#CCCCCC;stroke:#969696;stroke-linecap:round;stroke-miterlimit:10;}
	.st10{fill:#787878;}
	.st11{clip-path:url(#SVGID_2_);fill:#646464;}
	.st12{clip-path:url(#SVGID_2_);fill:none;}
	.st13{clip-path:url(#SVGID_2_);}
	.st14{clip-path:url(#SVGID_2_);fill:#FFFFFF;}
	.st15{clip-path:url(#SVGID_2_);fill:#DCDCDC;}
	.st16{clip-path:url(#SVGID_2_);fill:#C8C8C8;}
	.st17{fill:none;stroke:#231F20;stroke-width:3;stroke-linecap:round;stroke-miterlimit:10;}
	.st18{fill:none;stroke:#231F20;stroke-miterlimit:10;}
	.st19{clip-path:url(#SVGID_4_);fill:#C8C8C8;}
	.st20{clip-path:url(#SVGID_4_);}
	.st21{fill:none;stroke:#231F20;stroke-width:0.5;stroke-miterlimit:10;}
	.st22{fill:none;stroke:#231F20;stroke-width:0.5;stroke-linecap:round;stroke-miterlimit:10;}
	.st23{fill:#FFFFFF;stroke:#231F20;stroke-miterlimit:10;}
	.st24{fill:#231F20;}
	.st25{display:none;clip-path:url(#SVGID_6_);fill:#646464;}
	.st26{display:none;clip-path:url(#SVGID_6_);fill:#FFFFFF;}
	.st27{fill:#333333;}
	.st28{fill:none;stroke:#FFFFFF;stroke-miterlimit:10;}
	.st29{clip-path:url(#SVGID_8_);fill:#646464;}
	.st30{clip-path:url(#SVGID_8_);fill:#FFFFFF;}
	.st31{clip-path:url(#SVGID_10_);fill:#646464;}
	.st32{clip-path:url(#SVGID_10_);fill:#FFFFFF;}
</style>
<g id="Layer_1" class="st0">
</g>
<g id="Layer_2" class="st0">
</g>
<g id="Layer_3">
</g>
<g id="Layer_4">
</g>
<g id="Layer_5">
	<polyline class="st17" points="34.4,51.1 30,74.3 8.7,67.8 4.8,74.3 	"/>
	<polyline class="st17" points="48.4,51.1 48.4,57.4 68.7,68.6 62.9,77.4 75.9,77.4 	"/>
	<line class="st18" x1="30.7" y1="25.6" x2="18.5" y2="6.6"/>
	<line class="st18" x1="48.4" y1="26.5" x2="60.8" y2="5.2"/>
	<path id="Back" class="st18" d="M6.9,51.3c-1-2.8,13.9-10.7,33.3-17.6s36-10.1,37-7.3"/>
	<g>
		<defs>
			<circle id="SVGID_3_" cx="41.4" cy="38.6" r="17.7"/>
		</defs>
		<clipPath id="SVGID_2_">
			<use xlink:href="#SVGID_3_"  style="overflow:visible;"/>
		</clipPath>
		<rect x="14.6" y="19" class="st16" width="51.8" height="39.9"/>
		<g class="st13">
			<path class="st21" d="M71.6,64.1c0-1.1-2.4-1.1-1.8-2c0.2-0.3,2.4-1.9,2.7-2.1c0.2-0.1,1.1,0,1.3-0.1c0.7-0.2,1.2-3,1.9-2.8"/>
			<path class="st21" d="M74.5,54.2c0.8-1.3,2-2.3,3.1-3.3"/>
			<path class="st22" d="M74.7,65.3c0.5-1.2,1.2-2.4,2.1-3.3c-0.4-0.2-0.5-0.7-0.4-1.1c0.1-0.3,0.3-0.4,0.4-0.7
				c0.3-0.6,0-1.2-0.1-1.8c-0.1-0.6-0.2-1.3-0.1-2c0-0.1,0-0.3,0.1-0.4c0.2-0.2,0.4-0.1,0.6-0.1c0.8,0.1,1.6,0.3,2.4,0.4
				c0.4,0.1,0.7,0.2,1,0.4c0.3,0.2,0.5,0.6,0.4,1"/>
			<path class="st21" d="M76.2,55.5c2-2,4.1-3.9,6.5-5.5c0.3-0.2,0.6-0.4,0.9-0.2c0.2,0.1,0.3,0.2,0.4,0.4c0.3,0.6,0.3,1.4,0.3,2.1
				c0,2.1-0.2,4.2-0.5,6.2c0,0.2-0.1,0.4-0.2,0.5c-0.1,0.1-0.3,0.1-0.4,0c-1.5-0.2-2.9-0.8-4.4-0.5"/>
			<path class="st21" d="M77.4,63.2c0.4-0.9,1-1.7,1.7-2.4c0.4-0.4,0.8-0.8,1.4-1s1.2-0.1,1.6,0.3c0.1,0.2,0.2,0.4,0.2,0.6
				c0,0.3-0.2,0.5-0.4,0.6c-1.9,2.1-3.8,4.2-5.7,6.2c-0.1,0.1-0.2,0.3-0.4,0.3c-0.2,0-0.3,0-0.5-0.1c-2.5-1.1-4.4-3.1-6.4-4.9"/>
			<path class="st21" d="M75.5,69.6c2.7-0.1,5.3-1.2,7.9-2.3c0.1,0,0.2-0.1,0.2-0.1c0.1-0.1,0-0.2,0-0.3c-0.2-0.5-0.5-1-0.9-1.4
				c-0.2-0.2-0.4-0.3-0.7-0.4c-0.3,0-0.6,0-0.7,0.2"/>
			<path class="st21" d="M69.6,60.9c0.2-2,2.7-3.1,3.2-5c0.3-1.1,0-2.2-0.3-3.2c-0.3-1.1-0.7-2.2-1-3.3c0.8-0.7,1.9-0.4,2.9-0.2
				c1.4,0.3,2.9,0.4,4.3,0.2"/>
			<path class="st21" d="M56,46.5c-5.1-8.5-2.9-3.3-3.1-3.2c-0.4,0.2,3,6.5,1.8,7.6c-0.9,0.8-3.3-1.6-4.1-0.8
				c-0.9,0.9,1.4,4.6,0.6,5.4c-0.3,0.3-1.2,0.3-3.5-1.4"/>
			<path class="st21" d="M62.4,55.9c0.5,0.9,2.6-0.2,2.6,0.9c0,0.4-1.2,2.8-1.3,3.2c-0.1,0.2-0.9,0.5-1.1,0.7
				C62,61.2,63,63.8,62.2,64"/>
			<path class="st21" d="M52.3,67.1c0.5-0.2,1-0.5,1.4-0.9c0.1-0.1,0.2-0.2,0.2-0.3c0-0.1-0.1-0.2-0.1-0.3c-0.3-0.4-0.7-0.8-1-1.3
				c-0.1-0.1-0.2-0.2-0.2-0.4c0-0.1,0-0.3,0-0.4c0.1-0.5,0.1-1.1,0.2-1.6c0-0.2,0.1-0.4,0.2-0.5c0.1-0.1,0.3-0.2,0.5-0.2
				c0.4-0.1,0.7-0.2,0.9-0.5c0.2-0.3,0.3-0.7,0-1"/>
			<path class="st21" d="M55.9,62.9c0.3,0.2,0.5,0.5,0.8,0.6c0.7,0.5,1.7,0.2,2.5,0.4c0.1,0,0.3,0.1,0.4,0.2
				c0.1,0.1,0.2,0.3,0.2,0.5c0.1,1.1-0.6,2.2-0.3,3.3"/>
			<path class="st21" d="M64.7,65.9c-0.1,1.5-0.6,3-1.1,4.4"/>
			<path class="st21" d="M50.6,61c0.3,1.1,0.7,2.2,0.9,3.3c0.1,0.7,0.2,1.4,0.1,2.1"/>
			<path class="st22" d="M58.8,51c0.2,1.3,0.1,2.6-0.2,3.9c0.4,0,0.8,0.4,0.9,0.8c0,0.3,0,0.5,0,0.8c0,0.6,0.6,1.1,1,1.5
				c0.4,0.5,0.8,1.1,1.1,1.7c0.1,0.1,0.1,0.3,0.1,0.4c-0.1,0.2-0.3,0.3-0.5,0.4c-0.7,0.3-1.5,0.6-2.3,0.8c-0.4,0.1-0.7,0.2-1.1,0.2
				c-0.4,0-0.7-0.3-0.9-0.6"/>
			<path class="st21" d="M47.5,63.5c2.2,3.1,4.6,6,7.1,8.9"/>
			<path class="st21" d="M68.5,45.9c-0.7,2.7-1.7,5.4-2.9,8c-0.1,0.3-0.3,0.6-0.6,0.6c-0.2,0-0.4-0.1-0.5-0.2c-0.6-0.4-1-1-1.3-1.6
				c-1-1.8-1.9-3.7-2.7-5.7c-0.1-0.2-0.1-0.4,0-0.5c0.1-0.1,0.2-0.2,0.3-0.2c1.4-0.5,2.9-0.7,4-1.7"/>
			<path class="st21" d="M70.7,51.2c0,1-0.1,1.9-0.3,2.9c-0.1,0.5-0.3,1.1-0.7,1.5c-0.4,0.4-1,0.7-1.5,0.5c-0.2-0.1-0.4-0.2-0.5-0.4
				c-0.1-0.2,0-0.5,0-0.7c0.6-2.8,1.2-5.5,1.9-8.2c0-0.2,0.1-0.3,0.2-0.5c0.1-0.1,0.3-0.1,0.5-0.2c2.7-0.2,5.4,0.5,8,1.2"/>
			<path class="st21" d="M56.2,53.1c-2.3,1.5-4,3.7-5.7,5.9c-0.1,0.1-0.1,0.1-0.1,0.2c0,0.1,0.1,0.2,0.2,0.3
				c0.4,0.4,0.9,0.6,1.5,0.8c0.3,0.1,0.5,0.1,0.8,0c0.2-0.1,0.5-0.3,0.5-0.6"/>
			<path class="st21" d="M65.6,57.7c0.8,1.9-0.8,4-0.3,6c0.3,1.1,1.1,1.9,1.9,2.6c0.8,0.8,1.7,1.6,2.5,2.4c-0.3,0.9-1.5,1.3-2.4,1.6
				c-1.4,0.4-2.7,1.1-3.8,1.9"/>
			<path class="st21" d="M41.9,68.9c13.1,6.9,6.4,2,6.6,1.6c0.4-0.7-8.7-6.2-7.7-8.8c0.7-1.8,5.8-0.8,6.4-2.6c0.7-2.1-5.1-5-4.4-6.9
				c0.3-0.7,1.5-1.4,6-1.2"/>
		</g>
		<g class="st13">
			<path class="st21" d="M28.8,38.4c0.8,0.8,2.4-0.9,2.7,0.1c0.1,0.4-0.3,3.1-0.4,3.4c0,0.2-0.7,0.8-0.8,1c-0.4,0.7,1.3,2.9,0.7,3.3
				"/>
			<path class="st21" d="M22.3,52c0.4-0.3,0.8-0.8,1.1-1.2c0.1-0.1,0.1-0.2,0.1-0.3c0-0.1-0.1-0.2-0.2-0.2c-0.4-0.3-0.9-0.6-1.3-0.9
				c-0.1-0.1-0.2-0.2-0.3-0.3c-0.1-0.1-0.1-0.3-0.1-0.4c-0.1-0.5-0.2-1.1-0.2-1.6c0-0.2-0.1-0.4,0-0.6c0.1-0.2,0.3-0.3,0.4-0.3
				c0.3-0.2,0.6-0.4,0.8-0.8c0.1-0.3,0-0.8-0.3-1"/>
			<path class="st21" d="M25.8,51.2c0.3,0.1,0.6,0.3,0.9,0.4c0.8,0.3,1.7-0.2,2.5-0.3c0.1,0,0.3,0,0.4,0.1c0.2,0.1,0.3,0.3,0.3,0.4
				c0.4,1,0.1,2.3,0.6,3.3"/>
			<path class="st21" d="M33.8,47.4c0.3,1.5,0.3,3,0.2,4.5"/>
			<path class="st21" d="M19,46.6c0.6,0.9,1.2,1.9,1.8,2.9c0.3,0.6,0.6,1.3,0.7,2"/>
			<path class="st22" d="M25.7,39.9c0.5,1.2,0.8,2.5,0.9,3.8c0.4-0.1,0.9,0.1,1,0.5c0.1,0.2,0.1,0.5,0.2,0.8
				c0.2,0.6,0.9,0.9,1.4,1.2c0.6,0.3,1.1,0.8,1.5,1.3c0.1,0.1,0.2,0.2,0.2,0.4c0,0.2-0.2,0.4-0.4,0.5c-0.6,0.5-1.3,1-2,1.4
				c-0.3,0.2-0.6,0.4-1,0.5s-0.8,0-1-0.3"/>
			<path class="st21" d="M16.7,49.9c3,2.3,6.1,4.5,9.3,6.5"/>
			<path class="st21" d="M31.8,47.7c0.1,2.8-0.1,5.7-0.6,8.5c-0.1,0.3-0.2,0.7-0.4,0.8c-0.2,0.1-0.4,0-0.5,0
				c-0.7-0.2-1.2-0.7-1.7-1.2c-1.5-1.5-2.9-3-4.2-4.7c-0.1-0.2-0.2-0.3-0.2-0.5c0-0.1,0.1-0.2,0.3-0.3c1.2-0.9,2.6-1.5,3.4-2.8"/>
			<path class="st21" d="M25.4,43.2c0.3,0.9,0.5,1.9,0.5,2.9c0,0.6,0,1.1-0.3,1.6c-0.2,0.5-0.8,0.9-1.3,0.9c-0.2,0-0.4-0.1-0.6-0.3
				c-0.2-0.2-0.2-0.5-0.2-0.7c-0.2-2.8-0.3-5.6-0.5-8.4c0-0.2,0-0.4,0.1-0.5c0.1-0.1,0.3-0.2,0.4-0.3c2.5-1,5.3-1.1,8-1.1"/>
			<path class="st21" d="M22.1,37.4c-1.8,2.1-2.8,4.7-3.8,7.3c0,0.1-0.1,0.2,0,0.2c0,0.1,0.1,0.2,0.2,0.2c0.5,0.2,1.1,0.4,1.7,0.3
				c0.3,0,0.5-0.1,0.7-0.2c0.2-0.2,0.4-0.4,0.3-0.7"/>
			<path class="st21" d="M32.4,39.2c1.3,1.6,0.4,4.1,1.4,5.8c0.6,0.9,1.6,1.5,2.6,2c1,0.5,2.1,1.1,3.1,1.6c-0.1,1-1,1.6-1.9,2.2
				c-1.2,0.8-2.2,1.8-3.1,2.9"/>
			<path class="st21" d="M52.3,39.5c9.6,2.2,4.4,0.3,4.4,0c0.1-0.4-6.8-2.4-6.7-4c0.1-1.1,3.4-1.2,3.4-2.4c0-1.3-4.2-2.2-4.2-3.3
				c0-0.5,0.6-1,3.5-1.5"/>
			<path class="st21" d="M41.1,37.5c-1-0.3-1.6,2-2.4,1.3c-0.3-0.3-1.2-2.8-1.3-3.2c-0.1-0.2,0.2-1,0.2-1.3c0-0.8-2.6-1.9-2.2-2.6"
				/>
			<path class="st21" d="M40,22.5c-0.2,0.5-0.3,1.1-0.3,1.6c0,0.1,0,0.2,0.1,0.3c0.1,0.1,0.2,0.1,0.3,0.1c0.5,0.1,1.1,0.1,1.6,0.2
				c0.1,0,0.3,0,0.4,0.1c0.1,0.1,0.2,0.2,0.3,0.3c0.3,0.4,0.7,0.8,1,1.3c0.1,0.2,0.2,0.3,0.2,0.5c0,0.2-0.1,0.3-0.2,0.5
				c-0.2,0.3-0.3,0.7-0.3,1c0,0.4,0.3,0.7,0.7,0.7"/>
			<path class="st21" d="M40.6,27.9c-0.3,0.1-0.7,0-1,0.1c-0.8,0.2-1.3,1-2,1.5c-0.1,0.1-0.3,0.1-0.4,0.1c-0.2,0-0.4-0.1-0.5-0.2
				c-0.9-0.7-1.2-2-2.2-2.5"/>
			<path class="st21" d="M32.3,32.2c-1-1.1-1.7-2.5-2.4-3.9"/>
			<path class="st21" d="M45.6,25.5c-1-0.5-2-1-3-1.6c-0.6-0.4-1.2-0.8-1.5-1.4"/>
			<path class="st22" d="M47,38.3c-1.1-0.8-2-1.8-2.6-2.9c-0.3,0.3-0.8,0.3-1.2,0.1c-0.2-0.2-0.4-0.4-0.6-0.6
				c-0.5-0.4-1.2-0.3-1.8-0.3c-0.7,0-1.3-0.2-1.9-0.4c-0.1-0.1-0.3-0.1-0.3-0.2c-0.1-0.2,0-0.4,0-0.6c0.3-0.7,0.7-1.5,1-2.2
				c0.2-0.3,0.4-0.7,0.7-0.9c0.3-0.2,0.7-0.3,1-0.2"/>
			<path class="st21" d="M46,21.6c-3.7-0.5-7.5-0.9-11.3-1.1"/>
			<path class="st21" d="M43.9,48.9c-1.5-2.4-2.7-5-3.7-7.6c-0.1-0.3-0.2-0.7,0-0.9c0.1-0.1,0.3-0.2,0.5-0.2c0.7-0.1,1.4,0,2.1,0.2
				c2,0.5,4,1.2,5.9,2c0.2,0.1,0.4,0.2,0.4,0.4c0,0.1,0,0.3-0.1,0.4c-0.6,1.4-1.5,2.6-1.6,4.1"/>
			<path class="st21" d="M38.6,46.8c-0.7-0.6-1.4-1.4-1.9-2.2c-0.3-0.5-0.6-1-0.6-1.6c0-0.6,0.2-1.2,0.7-1.4
				c0.2-0.1,0.4-0.1,0.6-0.1c0.2,0.1,0.4,0.3,0.5,0.5c1.5,2.4,3.1,4.7,4.6,7.1c0.1,0.1,0.2,0.3,0.2,0.5c0,0.2-0.1,0.3-0.2,0.5
				c-1.7,2.1-4.1,3.5-6.4,4.9"/>
			<path class="st21" d="M47.4,35.1c0.6-2.7,0.1-5.5-0.3-8.2c0-0.1,0-0.2-0.1-0.2c-0.1-0.1-0.2-0.1-0.3-0.1c-0.6,0-1.1,0.2-1.6,0.6
				c-0.2,0.1-0.4,0.3-0.5,0.6s-0.1,0.5,0.1,0.8"/>
			<path class="st21" d="M37.5,38.6c-1.9-0.7-2.3-3.4-4.1-4.4c-0.9-0.6-2.1-0.5-3.2-0.5c-1.2,0-2.3,0.1-3.5,0.1
				c-0.4-0.9,0.1-1.9,0.5-2.9c0.6-1.3,1.1-2.7,1.3-4.1"/>
			<path class="st21" d="M46,13.8c-14.1,4.6-5.8,3.2-5.7,3.6c0.2,0.8,10.5-2,11.7,0.6c0.8,1.8-3.5,4.7-2.6,6.4c1,1.9,7.1-0.2,8,1.6
				c0.3,0.7,0,2.1-3.3,5.2"/>
		</g>
		<use xlink:href="#SVGID_3_"  style="overflow:visible;fill:none;stroke:#231F20;stroke-miterlimit:10;"/>
	</g>
	<circle class="st23" cx="19" cy="7.7" r="3.6"/>
	<circle class="st23" cx="61.3" cy="5.7" r="3.6"/>
	<path id="Front" class="st18" d="M77.4,26.6c1,2.8-13.9,10.7-33.3,17.6s-36,10.1-37,7.3"/>
	<circle class="st24" cx="20.4" cy="7.7" r="1.3"/>
	<circle class="st24" cx="62" cy="7.1" r="1.3"/>
</g>
<g id="Layer_6">
</g>
</svg>
