<?xml version="1.0" encoding="utf-8"?>
<!-- Generator: Adobe Illustrator 19.2.1, SVG Export Plug-In . SVG Version: 6.00 Build 0)  -->
<svg version="1.1" xmlns="http://www.w3.org/2000/svg" xmlns:xlink="http://www.w3.org/1999/xlink" x="0px" y="0px"
	 viewBox="0 0 80 80" style="enable-background:new 0 0 80 80;" xml:space="preserve">
<style type="text/css">
	.st0{display:none;}
	.st1{display:inline;}
	.st2{fill:#FFEC5C;}
	.st3{fill:#FCFFA2;}
	.st4{fill:#FFFFFF;}
	.st5{fill:#646464;}
	.st6{fill:#CCCCCC;}
	.st7{fill:#323232;}
	.st8{display:inline;fill:#CCCCCC;stroke:#969696;stroke-linecap:round;stroke-miterlimit:10;}
	.st9{fill:#CCCCCC;stroke:#969696;stroke-linecap:round;stroke-miterlimit:10;}
	.st10{fill:#787878;}
	.st11{clip-path:url(#SVGID_2_);fill:#646464;}
	.st12{clip-path:url(#SVGID_2_);fill:none;}
	.st13{clip-path:url(#SVGID_2_);}
	.st14{clip-path:url(#SVGID_2_);fill:#FFFFFF;}
	.st15{clip-path:url(#SVGID_2_);fill:#DCDCDC;}
	.st16{clip-path:url(#SVGID_2_);fill:#C8C8C8;}
	.st17{fill:none;stroke:#231F20;stroke-width:3;stroke-linecap:round;stroke-miterlimit:10;}
	.st18{fill:none;stroke:#231F20;stroke-miterlimit:10;}
	.st19{clip-path:url(#SVGID_4_);fill:#C8C8C8;}
	.st20{clip-path:url(#SVGID_4_);}
	.st21{fill:none;stroke:#231F20;stroke-width:0.5;stroke-miterlimit:10;}
	.st22{fill:none;stroke:#231F20;stroke-width:0.5;stroke-linecap:round;stroke-miterlimit:10;}
	.st23{fill:#FFFFFF;stroke:#231F20;stroke-miterlimit:10;}
	.st24{fill:#231F20;}
	.st25{display:none;clip-path:url(#SVGID_6_);fill:#646464;}
	.st26{display:none;clip-path:url(#SVGID_6_);fill:#FFFFFF;}
	.st27{fill:#333333;}
	.st28{fill:none;stroke:#FFFFFF;stroke-miterlimit:10;}
	.st29{clip-path:url(#SVGID_8_);fill:#646464;}
	.st30{clip-path:url(#SVGID_8_);fill:#FFFFFF;}
	.st31{clip-path:url(#SVGID_10_);fill:#646464;}
	.st32{clip-path:url(#SVGID_10_);fill:#FFFFFF;}
</style>
<g id="Layer_1" class="st0">
</g>
<g id="Layer_2" class="st0">
</g>
<g id="Layer_3">
</g>
<g id="Layer_4">
</g>
<g id="Layer_5">
	<g>
		<defs>
			<circle id="SVGID_3_" cx="-46.9" cy="38.6" r="17.7"/>
		</defs>
		<clipPath id="SVGID_2_">
			<use xlink:href="#SVGID_3_"  style="overflow:visible;"/>
		</clipPath>
		<g class="st13">
			<path class="st21" d="M0,64.8c-0.4-3.8-1-7.5-1.8-11.2"/>
		</g>
		<use xlink:href="#SVGID_3_"  style="overflow:visible;fill:none;stroke:#231F20;stroke-miterlimit:10;"/>
	</g>
	<g>
		<defs>
			<polygon id="SVGID_5_" points="36.3,29.4 41.2,23.7 31.7,23.6 			"/>
		</defs>
		<clipPath id="SVGID_4_">
			<use xlink:href="#SVGID_5_"  style="display:none;overflow:visible;"/>
		</clipPath>
		<rect x="30.7" y="22.3" style="display:none;clip-path:url(#SVGID_4_);fill:#646464;" width="11.7" height="7.9"/>
		<circle style="display:none;clip-path:url(#SVGID_4_);fill:#FFFFFF;" cx="36.4" cy="25.8" r="2.2"/>
	</g>
</g>
<g id="Layer_6">
	<rect x="8" y="64.7" class="st27" width="64.7" height="8.6"/>
	<polygon class="st5" points="40.1,27.1 63.7,68 16.5,68 	"/>
	<g>
		<line class="st28" x1="40.1" y1="27.1" x2="25.7" y2="63.8"/>
		<line class="st28" x1="40.1" y1="27.1" x2="28.9" y2="64.9"/>
		<line class="st28" x1="40.1" y1="27.1" x2="32.3" y2="65.7"/>
		<line class="st28" x1="40.1" y1="27.1" x2="35.6" y2="66.3"/>
		<line class="st28" x1="40.1" y1="27.1" x2="39.1" y2="66.5"/>
		<line class="st28" x1="40.1" y1="27.1" x2="42.5" y2="66.4"/>
		<line class="st28" x1="40.1" y1="27.1" x2="45.9" y2="66.1"/>
		<line class="st28" x1="40.1" y1="27.1" x2="49.3" y2="65.4"/>
		<line class="st28" x1="40.1" y1="27.1" x2="52.6" y2="64.5"/>
	</g>
	<circle class="st6" cx="41" cy="35.6" r="25"/>
	<g>
		
			<rect x="13.3" y="15.1" transform="matrix(0.9848 0.1736 -0.1736 0.9848 6.1498 -2.8482)" class="st27" width="12" height="37.2"/>
		
			<rect x="56.7" y="15.1" transform="matrix(0.9848 -0.1736 0.1736 0.9848 -4.9029 11.4041)" class="st27" width="12" height="37.2"/>
		<rect x="28" y="5.9" class="st27" width="24.3" height="9.5"/>
		<circle class="st27" cx="24.7" cy="12.2" r="8.6"/>
		<circle class="st27" cx="57" cy="12.2" r="8.6"/>
		<circle class="st27" cx="18" cy="46" r="10.3"/>
		<circle class="st27" cx="65.7" cy="46" r="10.3"/>
	</g>
	<rect x="33.4" y="47.3" class="st5" width="16.6" height="2.1"/>
	<polygon class="st5" points="42,28.3 37.8,42.6 46,42.7 	"/>
	<g>
		<defs>
			<polygon id="SVGID_7_" points="48.3,28.8 53.2,23 43.7,23 			"/>
		</defs>
		<clipPath id="SVGID_6_">
			<use xlink:href="#SVGID_7_"  style="overflow:visible;"/>
		</clipPath>
		<rect x="42.7" y="21.7" style="clip-path:url(#SVGID_6_);fill:#646464;" width="11.7" height="7.9"/>
		<circle style="clip-path:url(#SVGID_6_);fill:#FFFFFF;" cx="48.4" cy="25.1" r="2.2"/>
	</g>
	<g>
		<defs>
			<polygon id="SVGID_9_" points="35.3,28.9 40.2,23.1 30.7,23.1 			"/>
		</defs>
		<clipPath id="SVGID_8_">
			<use xlink:href="#SVGID_9_"  style="overflow:visible;"/>
		</clipPath>
		<rect x="29.7" y="21.8" class="st29" width="11.7" height="7.9"/>
		<circle class="st30" cx="35.5" cy="25.2" r="2.2"/>
	</g>
</g>
</svg>
