<svg id="Layer_1" data-name="Layer 1" xmlns="http://www.w3.org/2000/svg" xmlns:xlink="http://www.w3.org/1999/xlink" viewBox="0 0 1400 1000"><defs><style>.cls-1,.cls-4,.cls-5{fill:none;}.cls-1{stroke:#231f20;}.cls-1,.cls-4,.cls-5,.cls-6,.cls-7,.cls-8,.cls-9{stroke-miterlimit:10;}.cls-2{fill:#cfc;}.cls-3{fill:#c8c8c8;}.cls-4,.cls-5{stroke:#ffffa5;stroke-width:20px;}.cls-5{stroke-dasharray:100 100;}.cls-6,.cls-7,.cls-8,.cls-9{stroke-width:40px;}.cls-6{fill:url(#linear-gradient);stroke:url(#linear-gradient-2);}.cls-7{fill:url(#linear-gradient-3);stroke:url(#linear-gradient-4);}.cls-8{fill:url(#linear-gradient-5);stroke:url(#linear-gradient-6);}.cls-9{fill:url(#linear-gradient-7);stroke:url(#linear-gradient-8);}</style><linearGradient id="linear-gradient" y1="200" x2="1400" y2="200" gradientUnits="userSpaceOnUse"><stop offset="0" stop-color="#fff"/><stop offset="0.54"/><stop offset="0.99" stop-color="#f6f6f6"/></linearGradient><linearGradient id="linear-gradient-2" x1="700" y1="220" x2="700" y2="180" gradientUnits="userSpaceOnUse"><stop offset="0" stop-color="#fff33b"/><stop offset="0.05" stop-color="#ffea39"/><stop offset="0.12" stop-color="#ffd333"/><stop offset="0.21" stop-color="#ffad28"/><stop offset="0.32" stop-color="#ff781a"/><stop offset="0.44" stop-color="#ff3509"/><stop offset="0.5" stop-color="#ff1400"/><stop offset="0.54" stop-color="#fb320f"/><stop offset="0.63" stop-color="#f4702d"/><stop offset="0.72" stop-color="#eda346"/><stop offset="0.81" stop-color="#e8cb59"/><stop offset="0.88" stop-color="#e5e767"/><stop offset="0.95" stop-color="#e3f970"/><stop offset="1" stop-color="#e2ff73"/></linearGradient><linearGradient id="linear-gradient-3" y1="400" y2="400" xlink:href="#linear-gradient"/><linearGradient id="linear-gradient-4" x1="700" y1="420" x2="700" y2="380" xlink:href="#linear-gradient-2"/><linearGradient id="linear-gradient-5" y1="600" y2="600" xlink:href="#linear-gradient"/><linearGradient id="linear-gradient-6" x1="700" y1="620" x2="700" y2="580" xlink:href="#linear-gradient-2"/><linearGradient id="linear-gradient-7" y1="800" y2="800" xlink:href="#linear-gradient"/><linearGradient id="linear-gradient-8" x1="700" y1="820" x2="700" y2="780" xlink:href="#linear-gradient-2"/></defs><title>interface</title><rect class="cls-1" width="200" height="200"/><rect class="cls-1" x="200" width="200" height="200"/><rect class="cls-1" x="400" width="200" height="200"/><rect class="cls-1" x="600" width="200" height="200"/><rect class="cls-1" x="800" width="200" height="200"/><rect class="cls-1" x="1000" width="200" height="200"/><rect class="cls-1" x="1200" width="200" height="200"/><rect class="cls-1" y="200" width="200" height="200"/><rect class="cls-1" x="200" y="200" width="200" height="200"/><rect class="cls-1" x="400" y="200" width="200" height="200"/><rect class="cls-1" x="600" y="200" width="200" height="200"/><rect class="cls-1" x="800" y="200" width="200" height="200"/><rect class="cls-1" x="1000" y="200" width="200" height="200"/><rect class="cls-1" x="1200" y="200" width="200" height="200"/><rect class="cls-1" y="400" width="200" height="200"/><rect class="cls-1" x="200" y="400" width="200" height="200"/><rect class="cls-1" x="400" y="400" width="200" height="200"/><rect class="cls-1" x="600" y="400" width="200" height="200"/><rect class="cls-1" x="800" y="400" width="200" height="200"/><rect class="cls-1" x="1000" y="400" width="200" height="200"/><rect class="cls-1" x="1200" y="400" width="200" height="200"/><rect class="cls-1" y="600" width="200" height="200"/><rect class="cls-1" x="200" y="600" width="200" height="200"/><rect class="cls-1" x="400" y="600" width="200" height="200"/><rect class="cls-1" x="600" y="600" width="200" height="200"/><rect class="cls-1" x="800" y="600" width="200" height="200"/><rect class="cls-1" x="1000" y="600" width="200" height="200"/><rect class="cls-1" x="1200" y="600" width="200" height="200"/><rect class="cls-1" y="800" width="200" height="200"/><rect class="cls-1" x="200" y="800" width="200" height="200"/><rect class="cls-1" x="400" y="800" width="200" height="200"/><rect class="cls-1" x="600" y="800" width="200" height="200"/><rect class="cls-1" x="800" y="800" width="200" height="200"/><rect class="cls-1" x="1000" y="800" width="200" height="200"/><rect class="cls-1" x="1200" y="800" width="200" height="200"/><rect class="cls-2" width="1400" height="200"/><rect class="cls-2" y="800" width="1400" height="200"/><rect class="cls-3" y="200" width="1400" height="200"/><line class="cls-4" y1="302.84" x2="50" y2="302.84"/><line class="cls-5" x1="150" y1="302.84" x2="1300" y2="302.84"/><line class="cls-4" x1="1350" y1="302.84" x2="1400" y2="302.84"/><rect class="cls-3" y="400" width="1400" height="200"/><line class="cls-4" y1="502.84" x2="50" y2="502.84"/><line class="cls-5" x1="150" y1="502.84" x2="1300" y2="502.84"/><line class="cls-4" x1="1350" y1="502.84" x2="1400" y2="502.84"/><rect class="cls-3" y="600" width="1400" height="200"/><line class="cls-4" y1="702.84" x2="50" y2="702.84"/><line class="cls-5" x1="150" y1="702.84" x2="1300" y2="702.84"/><line class="cls-4" x1="1350" y1="702.84" x2="1400" y2="702.84"/><line class="cls-6" y1="200" x2="1400" y2="200"/><line class="cls-7" y1="400" x2="1400" y2="400"/><line class="cls-8" y1="600" x2="1400" y2="600"/><line class="cls-9" y1="800" x2="1400" y2="800"/></svg>