<?xml version="1.0" encoding="UTF-8"?><svg id="Layer_2" xmlns="http://www.w3.org/2000/svg" xmlns:xlink="http://www.w3.org/1999/xlink" viewBox="0 0 85.04 119.71"><defs><style>.cls-1{fill:#939598;}.cls-2{fill:#a7a9ac;}.cls-3{fill:#d1d3d4;}</style><symbol id="Tile" viewBox="0 0 85.04 119.71"><g><g><polygon class="cls-3" points="24.55 14.03 5.7 24.92 5.7 39.09 5.7 39.09 5.7 24.92 36.82 6.95 36.82 0 24.55 0 24.55 14.03"/><polygon class="cls-3" points="36.82 98.56 0 77.3 0 91.48 24.55 105.65 24.55 119.71 36.82 119.71 36.82 98.56"/><polygon class="cls-3" points="17.97 60.35 17.97 32 36.82 21.12 36.82 6.95 36.82 6.95 5.7 24.92 5.7 39.09 5.7 67.44 42.52 88.7 42.52 74.52 17.97 60.35"/><polygon class="cls-3" points="48.22 4.05 48.22 6.95 60.49 14.03 60.49 0 48.22 0 48.22 3.37 48.22 4.05"/><polygon class="cls-3" points="48.22 98.56 48.22 119.71 60.49 119.71 60.49 105.65 85.04 91.48 85.04 77.3 48.22 98.56"/><polygon class="cls-3" points="79.34 67.44 79.34 42.66 79.34 41.99 79.34 24.92 60.49 14.03 48.22 6.95 48.22 21.12 67.07 32 67.07 60.35 42.52 74.52 42.52 88.7 79.34 67.44"/></g><g><polygon class="cls-2" points="12.27 6.95 12.27 0 0 0 0 14.03 12.27 6.95"/><polygon class="cls-2" points="12.27 112.74 0 105.65 0 119.71 12.27 119.71 12.27 112.74"/><polygon class="cls-2" points="30.25 39.09 30.25 53.26 42.52 60.35 42.52 32 30.25 39.09"/><polygon class="cls-2" points="72.77 6.95 85.04 14.03 85.04 0 72.77 0 72.77 6.95"/><polygon class="cls-2" points="72.77 112.74 72.77 119.71 85.04 119.71 85.04 105.65 72.77 112.74"/><polygon class="cls-2" points="54.79 53.26 54.79 39.09 42.52 32 42.52 60.35 54.79 53.26"/></g><g><path class="cls-1" d="M42.52,119.71v-31.01L5.7,67.44v-28.35h0v2.9c-1.86,.25-3.76,.39-5.7,.39v34.93l36.82,21.26v21.15h5.7Z"/><path class="cls-1" d="M36.82,6.95h0v-2.9c1.86-.25,3.76-.39,5.7-.39V0h-5.7V6.95Z"/><polygon class="cls-1" points="5.7 14.31 5.7 24.92 24.55 14.03 24.55 0 12.27 0 12.27 6.95 0 14.03 0 14.31 5.7 14.31"/><path class="cls-1" d="M5.7,41.99V14.31H0v28.06c1.93,0,3.83-.14,5.7-.39Z"/><polygon class="cls-1" points="24.55 105.65 0 91.48 0 105.65 12.27 112.74 12.27 119.71 24.55 119.71 24.55 105.65"/><polygon class="cls-1" points="36.82 31.72 36.82 21.12 17.97 32 17.97 60.35 42.52 74.52 42.52 60.35 30.25 53.26 30.25 39.09 42.52 32 42.52 31.72 36.82 31.72"/><path class="cls-1" d="M36.82,4.05V31.72h5.7V3.66c-1.93,0-3.83,.14-5.7,.39Z"/><path class="cls-1" d="M85.04,42.38c-1.93,0-3.83-.14-5.7-.39v25.45l-36.82,21.26v31.01h5.7v-21.15l36.82-21.26V42.38Z"/><path class="cls-1" d="M48.22,4.05V0h-5.7V3.66c1.93,0,3.83,.14,5.7,.39Z"/><polygon class="cls-1" points="60.49 14.03 79.34 24.92 79.34 14.31 85.04 14.31 85.04 14.03 72.77 6.95 72.77 0 60.49 0 60.49 14.03"/><path class="cls-1" d="M79.34,14.31v27.67c1.86,.25,3.76,.39,5.7,.39V14.31h-5.7Z"/><polygon class="cls-1" points="60.49 105.65 60.49 119.71 72.77 119.71 72.77 112.74 85.04 105.65 85.04 91.48 60.49 105.65"/><polygon class="cls-1" points="67.07 60.35 67.07 32 48.22 21.12 48.22 21.12 48.22 31.72 42.52 31.72 42.52 32 54.79 39.09 54.79 53.26 42.52 60.35 42.52 74.52 67.07 60.35"/><path class="cls-1" d="M48.22,31.72v-10.6h0V4.05c-1.86-.25-3.76-.39-5.7-.39V31.72h5.7Z"/></g></g></symbol></defs><g id="Layer_1-2"><use width="85.04" height="119.71" xlink:href="#Tile"/></g></svg>